<svg height="512" viewBox="0 0 64 64" width="512" xmlns="http://www.w3.org/2000/svg"><g id="Boardgame-2" data-name="Boardgame"><path d="m60 1h-56a3 3 0 0 0 -3 3v56a3 3 0 0 0 3 3h56a3 3 0 0 0 3-3v-56a3 3 0 0 0 -3-3zm1 59a1 1 0 0 1 -1 1h-56a1 1 0 0 1 -1-1v-56a1 1 0 0 1 1-1h56a1 1 0 0 1 1 1z"/><path d="m16 50a1 1 0 0 0 0-2h-4a1 1 0 0 0 -1 1v3a1 1 0 0 0 1 1h3v1h-3a1 1 0 0 0 0 2h4a1 1 0 0 0 1-1v-3a1 1 0 0 0 -1-1h-3v-1z"/><path d="m44 23h-23v-6h22v1a1 1 0 0 0 1 1h12a1 1 0 0 0 1-1v-12a1 1 0 0 0 -1-1h-12a1 1 0 0 0 -1 1v1h-31a1 1 0 0 0 -1 1v24a1 1 0 0 0 1 1h23v14h-14v-1a1 1 0 0 0 -1-1h-12a1 1 0 0 0 -1 1v12a1 1 0 0 0 1 1h12a1 1 0 0 0 1-1v-1h23a1 1 0 0 0 1-1v-32a1 1 0 0 0 -1-1zm-7 10h6v6h-6zm0 8h6v6h-6zm6-10h-6v-6h6zm-30-14h6v6h-6zm32-10h10v10h-10zm-2 8h-6v-6h6zm-8 0h-6v-6h6zm-8 0h-6v-6h6zm-14-6h6v6h-6zm0 16h6v6h-6zm8 0h6v6h-6zm8 0h6v6h-6zm-10 32h-10v-10h10zm2-8h6v6h-6zm8 0h6v6h-6zm14 6h-6v-6h6z"/><path d="m48 16a1 1 0 0 0 1-1v-2h3a1 1 0 0 0 0-2h-3v-1h3a1 1 0 0 0 0-2h-4a1 1 0 0 0 -1 1v6a1 1 0 0 0 1 1z"/><path d="m49 32a1 1 0 0 0 -1 1v8a1 1 0 0 0 1 1h8a1 1 0 0 0 1-1v-8a1 1 0 0 0 -1-1zm7 8h-6v-6h6z"/><path d="m55 57h-8a1 1 0 0 0 0 2h8a1 1 0 0 0 0-2z"/><path d="m59 57h-1a1 1 0 0 0 0 2h1a1 1 0 0 0 0-2z"/><circle cx="52" cy="38" r="1"/><circle cx="54" cy="36" r="1"/></g></svg>